<?xml version="1.0" encoding="UTF-8" standalone="no"?>
<!DOCTYPE svg PUBLIC "-//W3C//DTD SVG 1.1//EN" "http://www.w3.org/Graphics/SVG/1.1/DTD/svg11.dtd">
<svg width="100%" height="100%" viewBox="0 0 32 32" version="1.1" xmlns="http://www.w3.org/2000/svg" xmlns:xlink="http://www.w3.org/1999/xlink" xml:space="preserve" xmlns:serif="http://www.serif.com/" style="fill-rule:evenodd;clip-rule:evenodd;stroke-linejoin:round;stroke-miterlimit:2;">
    <rect x="2" y="2" width="21" height="3" style="fill:rgb(57,57,57);"/>
    <g transform="matrix(0.857143,0,0,1,0.285714,6.25)">
        <rect x="2" y="2" width="21" height="3" style="fill:rgb(57,57,57);"/>
    </g>
    <g transform="matrix(0.714286,0,0,1,0.571429,12.5)">
        <rect x="2" y="2" width="21" height="3" style="fill:rgb(57,57,57);"/>
    </g>
    <g transform="matrix(0.571429,0,0,1,0.857143,18.75)">
        <rect x="2" y="2" width="21" height="3" style="fill:rgb(57,57,57);"/>
    </g>
    <g transform="matrix(0.428571,0,0,1,1.142857,25)">
        <rect x="2" y="2" width="21" height="3" style="fill:rgb(57,57,57);"/>
    </g>
    <g transform="matrix(1,0,0,1.166667,0.292893,-2.666667)">
        <path d="M25,24.718L25,4L27,4L27,24.718L28.293,23.61L29.707,24.822L26,28L22.293,24.822L23.707,23.61L25,24.718Z" style="fill:rgb(57,57,57);"/>
    </g>
</svg>
